<?xml version="1.0" standalone="no"?>
<!DOCTYPE svg PUBLIC "-//W3C//DTD SVG 20010904//EN"
 "http://www.w3.org/TR/2001/REC-SVG-20010904/DTD/svg10.dtd">
<svg version="1.0" xmlns="http://www.w3.org/2000/svg"
 width="194.000000pt" height="182.000000pt" viewBox="0 0 194.000000 182.000000"
 preserveAspectRatio="xMidYMid meet">
 <rect width="100%" height="100%" fill="white" rx="15" ry="15"/>

<g transform="translate(0.000000,182.000000) scale(0.100000,-0.100000)"
fill="#000000" stroke="ffffff">
<path d="M738 1669 c-148 -23 -308 -170 -402 -370 -53 -110 -69 -187 -69 -314
1 -190 47 -309 168 -431 59 -60 88 -80 183 -126 l112 -55 119 -141 119 -141
128 146 c120 137 132 147 202 179 260 118 383 321 369 604 -11 205 -89 373
-243 521 -73 70 -120 99 -194 119 -50 14 -415 21 -492 9z m217 -46 l9 -21 11
21 c9 19 21 22 75 25 93 5 216 -15 256 -41 44 -28 43 -37 -3 -37 -43 0 -142
-44 -188 -82 -36 -31 -60 -25 -100 24 l-27 33 5 -35 c5 -35 4 -35 -32 -35 -35
0 -36 1 -33 32 l4 33 -41 -41 -41 -41 -47 35 c-71 51 -112 69 -172 76 l-54 6
40 28 c47 32 121 46 243 43 77 -1 86 -3 95 -23z m-331 -77 c33 -14 38 -24 48
-105 1 -7 19 -22 41 -31 32 -14 36 -19 21 -23 -10 -2 -2 -3 19 -2 21 2 46 10
55 18 17 14 41 20 130 33 50 8 143 -11 187 -38 17 -10 44 -17 60 -17 29 1 29
1 5 8 -25 8 -25 8 7 15 41 10 53 25 61 82 7 44 10 48 46 61 22 7 43 10 47 6 5
-5 13 -40 19 -80 9 -58 9 -83 -3 -130 -13 -50 -13 -63 -1 -92 19 -45 19 -44
-18 -37 -32 5 -32 5 -9 -8 24 -13 23 -14 -30 -38 -30 -14 -55 -24 -57 -22 -2
1 0 22 3 47 5 31 13 48 29 56 30 17 45 43 51 93 l5 43 -15 -41 c-32 -86 -96
-110 -212 -80 -104 27 -153 52 -154 78 -1 22 -1 22 -8 -2 -14 -49 -210 -105
-284 -81 -49 16 -68 42 -77 103 l-8 53 -1 -56 c-1 -62 18 -98 66 -121 22 -11
29 -24 39 -77 23 -113 65 -245 97 -306 40 -75 122 -161 162 -170 52 -11 55
-14 55 -40 0 -18 -5 -25 -20 -25 -66 0 -179 107 -234 223 -32 67 -86 246 -86
287 0 11 -13 21 -40 29 -43 13 -47 20 -27 40 10 10 7 10 -16 2 -45 -17 -47
-14 -26 34 17 37 18 51 10 83 -14 48 -14 128 0 192 12 55 14 56 63 36z m872
-152 c46 -82 87 -188 110 -287 16 -68 16 -91 7 -176 -16 -146 -12 -141 -146
-140 -124 0 -122 7 8 36 l80 18 -125 5 -125 5 105 20 c98 18 102 20 65 27 -22
4 -69 8 -105 9 l-65 1 68 17 c37 9 65 20 61 24 -4 4 -34 7 -66 7 -66 0 -70 15
-7 25 48 8 46 13 -12 24 l-44 8 45 13 45 13 -35 9 c-19 6 -36 11 -38 13 -2 2
0 20 4 40 6 31 13 40 50 56 24 10 44 22 44 26 0 5 -11 24 -23 43 -22 32 -23
37 -10 79 17 58 17 135 -1 197 l-15 49 45 -49 c24 -26 60 -77 80 -112z m-957
110 c-15 -40 -15 -161 0 -207 12 -35 11 -41 -14 -78 -14 -23 -25 -42 -23 -44
2 -1 27 -14 55 -29 74 -37 86 -95 20 -96 -10 0 -15 -4 -12 -10 3 -5 17 -10 30
-10 44 0 35 -18 -13 -25 l-47 -8 42 -11 c63 -17 63 -26 0 -26 -77 0 -79 -15
-4 -31 60 -13 61 -13 22 -16 -22 -2 -69 -6 -105 -10 l-65 -7 110 -22 110 -22
-130 -2 -130 -2 85 -20 c137 -31 137 -37 0 -35 l-125 2 -11 50 c-7 28 -13 94
-13 147 -1 84 4 112 30 195 38 119 82 207 144 291 48 67 63 75 44 26z m661
-64 c-6 -11 -17 -20 -24 -20 -18 0 -8 62 13 77 13 10 17 8 19 -12 2 -13 -2
-33 -8 -45z m-449 17 c7 -42 -3 -47 -25 -15 -22 31 -21 60 1 56 12 -2 20 -16
24 -41z m47 -19 c-2 -6 -10 -14 -16 -16 -7 -2 -10 2 -6 12 7 18 28 22 22 4z
m347 -16 c-8 -8 -25 10 -19 20 4 6 9 5 15 -3 4 -7 6 -15 4 -17z m-317 -276 c4
-47 5 -86 1 -86 -14 0 -99 142 -99 164 0 4 80 13 88 10 1 -1 6 -40 10 -88z
m372 79 c0 -14 -70 -143 -84 -154 -14 -12 -16 -8 -16 35 0 27 3 66 6 87 6 36
8 37 50 37 24 0 44 -2 44 -5z m35 -82 c-10 -81 -49 -229 -76 -288 l-23 -50 -5
34 c-5 26 1 49 21 90 16 33 31 88 38 135 8 66 34 136 48 136 3 0 1 -26 -3 -57z
m-470 -108 c16 -74 55 -168 74 -179 6 -4 11 -19 11 -34 l-1 -27 -20 25 c-48
57 -94 174 -124 315 l-6 30 25 -30 c15 -18 31 -59 41 -100z m296 86 c19 -15
23 -27 21 -61 -3 -38 -1 -42 12 -30 13 10 16 10 16 -3 0 -9 -5 -27 -12 -41 -9
-20 -14 -23 -25 -14 -11 9 -12 6 -3 -16 13 -35 13 -41 -2 -28 -13 10 -11 -70
7 -233 5 -48 3 -67 -12 -94 -23 -43 -95 -82 -171 -90 l-57 -7 106 -106 c99
-100 104 -112 29 -73 -34 18 -36 14 -15 -45 8 -24 13 -45 11 -47 -7 -7 -197
272 -212 311 -4 10 14 12 74 8 178 -10 235 65 148 193 -43 61 -58 133 -37 176
l12 24 -20 -23 c-29 -34 -38 -7 -10 31 l23 32 -26 -17 c-32 -21 -37 -15 -44
49 -9 83 29 123 117 123 31 0 55 -6 70 -19z m109 -82 c-6 -35 -18 -77 -25 -94
l-14 -30 5 35 4 35 -11 -34 c-18 -59 -21 -25 -4 51 14 64 40 116 52 104 2 -2
-1 -32 -7 -67z m90 -39 c-36 -136 -80 -247 -122 -308 l-33 -47 -3 33 c-2 23 4
41 21 61 33 40 72 140 92 241 13 63 24 91 42 108 13 12 26 22 28 22 2 0 -10
-49 -25 -110z m-413 -14 c6 -17 12 -42 12 -56 0 -21 -4 -18 -25 20 -25 46 -23
20 3 -35 13 -28 13 -29 -3 -10 -21 26 -41 73 -53 124 l-9 41 32 -26 c17 -15
36 -41 43 -58z m53 -166 c18 -45 30 -83 27 -87 -3 -3 -20 8 -37 25 -26 27 -30
37 -30 86 0 31 2 56 4 56 2 0 18 -36 36 -80z m215 6 c-2 -6 -6 -23 -9 -38 -4
-16 -10 -28 -15 -28 -17 0 -19 54 -2 97 l16 45 7 -33 c3 -18 5 -37 3 -43z"/>
<path d="M859 1367 c9 -25 41 -36 41 -14 0 7 -11 19 -25 25 -22 10 -23 10 -16
-11z"/>
<path d="M1033 1378 c-25 -12 -31 -38 -10 -38 8 0 19 11 25 25 6 14 11 25 9
24 -1 0 -12 -5 -24 -11z"/>
<path d="M1141 1004 c0 -11 3 -14 6 -6 3 7 2 16 -1 19 -3 4 -6 -2 -5 -13z"/>
</g>
</svg>
